<mxfile host="app.diagrams.net" modified="2022-07-19T02:08:32.686Z" agent="5.0 (Windows NT 10.0; Win64; x64) AppleWebKit/537.36 (KHTML, like Gecko) Chrome/103.0.0.0 Safari/537.36" etag="V7dTu1V-_9EHWPY0k8Yy" version="18.1.3" type="github">
  <diagram id="k-XB5WYJPYYnKBDS9D10" name="Page-1">
    <mxGraphModel dx="1038" dy="483" grid="1" gridSize="10" guides="1" tooltips="1" connect="1" arrows="1" fold="1" page="1" pageScale="1" pageWidth="827" pageHeight="1169" math="0" shadow="0">
      <root>
        <mxCell id="0" />
        <mxCell id="1" parent="0" />
        <mxCell id="Q3yZ7hF_2W2fVTNShcGh-3" style="edgeStyle=orthogonalEdgeStyle;rounded=0;orthogonalLoop=1;jettySize=auto;html=1;exitX=0.31;exitY=0.8;exitDx=0;exitDy=0;exitPerimeter=0;entryX=0.5;entryY=0;entryDx=0;entryDy=0;" edge="1" parent="1" source="Q3yZ7hF_2W2fVTNShcGh-1" target="Q3yZ7hF_2W2fVTNShcGh-2">
          <mxGeometry relative="1" as="geometry">
            <Array as="points">
              <mxPoint x="230" y="134" />
            </Array>
          </mxGeometry>
        </mxCell>
        <mxCell id="Q3yZ7hF_2W2fVTNShcGh-5" style="edgeStyle=orthogonalEdgeStyle;rounded=0;orthogonalLoop=1;jettySize=auto;html=1;exitX=0.8;exitY=0.8;exitDx=0;exitDy=0;exitPerimeter=0;entryX=0.5;entryY=0;entryDx=0;entryDy=0;" edge="1" parent="1" source="Q3yZ7hF_2W2fVTNShcGh-1" target="Q3yZ7hF_2W2fVTNShcGh-19">
          <mxGeometry relative="1" as="geometry">
            <mxPoint x="460" y="210" as="targetPoint" />
          </mxGeometry>
        </mxCell>
        <mxCell id="Q3yZ7hF_2W2fVTNShcGh-1" value="cloud&lt;br&gt;（gRPC Server）" style="ellipse;shape=cloud;whiteSpace=wrap;html=1;" vertex="1" parent="1">
          <mxGeometry x="280" y="70" width="120" height="80" as="geometry" />
        </mxCell>
        <mxCell id="Q3yZ7hF_2W2fVTNShcGh-24" value="" style="edgeStyle=orthogonalEdgeStyle;rounded=0;orthogonalLoop=1;jettySize=auto;html=1;" edge="1" parent="1" source="Q3yZ7hF_2W2fVTNShcGh-2" target="Q3yZ7hF_2W2fVTNShcGh-23">
          <mxGeometry relative="1" as="geometry" />
        </mxCell>
        <mxCell id="Q3yZ7hF_2W2fVTNShcGh-26" value="" style="edgeStyle=orthogonalEdgeStyle;rounded=0;orthogonalLoop=1;jettySize=auto;html=1;" edge="1" parent="1" source="Q3yZ7hF_2W2fVTNShcGh-2" target="Q3yZ7hF_2W2fVTNShcGh-25">
          <mxGeometry relative="1" as="geometry" />
        </mxCell>
        <mxCell id="Q3yZ7hF_2W2fVTNShcGh-2" value="Edge1&lt;br&gt;（面对cloud为gRPC Stub）&lt;br&gt;（面对client为gRPC Server）" style="rounded=0;whiteSpace=wrap;html=1;" vertex="1" parent="1">
          <mxGeometry x="170" y="210" width="120" height="90" as="geometry" />
        </mxCell>
        <mxCell id="Q3yZ7hF_2W2fVTNShcGh-9" value="" style="curved=1;endArrow=classic;html=1;rounded=0;entryX=0.16;entryY=0.55;entryDx=0;entryDy=0;entryPerimeter=0;exitX=0.25;exitY=0;exitDx=0;exitDy=0;" edge="1" parent="1" source="Q3yZ7hF_2W2fVTNShcGh-2" target="Q3yZ7hF_2W2fVTNShcGh-1">
          <mxGeometry width="50" height="50" relative="1" as="geometry">
            <mxPoint x="190" y="170" as="sourcePoint" />
            <mxPoint x="240" y="120" as="targetPoint" />
            <Array as="points">
              <mxPoint x="170" y="170" />
              <mxPoint x="190" y="120" />
            </Array>
          </mxGeometry>
        </mxCell>
        <mxCell id="Q3yZ7hF_2W2fVTNShcGh-10" value="request" style="text;html=1;align=center;verticalAlign=middle;resizable=0;points=[];autosize=1;strokeColor=none;fillColor=none;" vertex="1" parent="1">
          <mxGeometry x="180" y="110" width="60" height="20" as="geometry" />
        </mxCell>
        <mxCell id="Q3yZ7hF_2W2fVTNShcGh-11" value="" style="curved=1;endArrow=classic;html=1;rounded=0;entryX=0.75;entryY=0;entryDx=0;entryDy=0;exitX=0.55;exitY=0.95;exitDx=0;exitDy=0;exitPerimeter=0;" edge="1" parent="1" source="Q3yZ7hF_2W2fVTNShcGh-1" target="Q3yZ7hF_2W2fVTNShcGh-2">
          <mxGeometry width="50" height="50" relative="1" as="geometry">
            <mxPoint x="320" y="230" as="sourcePoint" />
            <mxPoint x="370" y="180" as="targetPoint" />
            <Array as="points">
              <mxPoint x="340" y="190" />
              <mxPoint x="320" y="200" />
            </Array>
          </mxGeometry>
        </mxCell>
        <mxCell id="Q3yZ7hF_2W2fVTNShcGh-12" value="response Model" style="edgeLabel;html=1;align=center;verticalAlign=middle;resizable=0;points=[];" vertex="1" connectable="0" parent="Q3yZ7hF_2W2fVTNShcGh-11">
          <mxGeometry x="0.2795" y="3" relative="1" as="geometry">
            <mxPoint as="offset" />
          </mxGeometry>
        </mxCell>
        <mxCell id="Q3yZ7hF_2W2fVTNShcGh-22" value="" style="edgeStyle=orthogonalEdgeStyle;rounded=0;orthogonalLoop=1;jettySize=auto;html=1;" edge="1" parent="1" source="Q3yZ7hF_2W2fVTNShcGh-19" target="Q3yZ7hF_2W2fVTNShcGh-21">
          <mxGeometry relative="1" as="geometry" />
        </mxCell>
        <mxCell id="Q3yZ7hF_2W2fVTNShcGh-28" value="" style="edgeStyle=orthogonalEdgeStyle;rounded=0;orthogonalLoop=1;jettySize=auto;html=1;" edge="1" parent="1" source="Q3yZ7hF_2W2fVTNShcGh-19" target="Q3yZ7hF_2W2fVTNShcGh-27">
          <mxGeometry relative="1" as="geometry" />
        </mxCell>
        <mxCell id="Q3yZ7hF_2W2fVTNShcGh-19" value="Edge1&lt;br&gt;（面对cloud为gRPC Stub）&lt;br&gt;（面对client为gRPC Server）" style="rounded=0;whiteSpace=wrap;html=1;" vertex="1" parent="1">
          <mxGeometry x="440" y="210" width="120" height="90" as="geometry" />
        </mxCell>
        <mxCell id="Q3yZ7hF_2W2fVTNShcGh-21" value="&lt;span style=&quot;&quot;&gt;client1&lt;/span&gt;&lt;br style=&quot;&quot;&gt;&lt;span style=&quot;&quot;&gt;（gRPC Stub）&amp;nbsp;&lt;/span&gt;" style="ellipse;whiteSpace=wrap;html=1;rounded=0;" vertex="1" parent="1">
          <mxGeometry x="370" y="360" width="120" height="60" as="geometry" />
        </mxCell>
        <mxCell id="Q3yZ7hF_2W2fVTNShcGh-23" value="&lt;span style=&quot;&quot;&gt;client1&lt;/span&gt;&lt;br style=&quot;&quot;&gt;&lt;span style=&quot;&quot;&gt;（gRPC Stub）&amp;nbsp;&lt;/span&gt;" style="ellipse;whiteSpace=wrap;html=1;rounded=0;" vertex="1" parent="1">
          <mxGeometry x="100" y="360" width="120" height="60" as="geometry" />
        </mxCell>
        <mxCell id="Q3yZ7hF_2W2fVTNShcGh-25" value="&lt;span style=&quot;&quot;&gt;client2&lt;/span&gt;&lt;br style=&quot;&quot;&gt;&lt;span style=&quot;&quot;&gt;（gRPC Stub）&amp;nbsp;&lt;/span&gt;" style="ellipse;whiteSpace=wrap;html=1;rounded=0;" vertex="1" parent="1">
          <mxGeometry x="230" y="360" width="120" height="60" as="geometry" />
        </mxCell>
        <mxCell id="Q3yZ7hF_2W2fVTNShcGh-27" value="&lt;span style=&quot;&quot;&gt;client2&lt;/span&gt;&lt;br style=&quot;&quot;&gt;&lt;span style=&quot;&quot;&gt;（gRPC Stub）&amp;nbsp;&lt;/span&gt;" style="ellipse;whiteSpace=wrap;html=1;rounded=0;" vertex="1" parent="1">
          <mxGeometry x="510" y="360" width="120" height="60" as="geometry" />
        </mxCell>
        <mxCell id="Q3yZ7hF_2W2fVTNShcGh-29" value="" style="curved=1;endArrow=classic;html=1;rounded=0;entryX=0.75;entryY=0;entryDx=0;entryDy=0;exitX=1;exitY=0.5;exitDx=0;exitDy=0;" edge="1" parent="1" source="Q3yZ7hF_2W2fVTNShcGh-19">
          <mxGeometry width="50" height="50" relative="1" as="geometry">
            <mxPoint x="686" y="300" as="sourcePoint" />
            <mxPoint x="600" y="364" as="targetPoint" />
            <Array as="points">
              <mxPoint x="590" y="250" />
              <mxPoint x="630" y="330" />
            </Array>
          </mxGeometry>
        </mxCell>
        <mxCell id="Q3yZ7hF_2W2fVTNShcGh-30" value="response Model" style="edgeLabel;html=1;align=center;verticalAlign=middle;resizable=0;points=[];" vertex="1" connectable="0" parent="Q3yZ7hF_2W2fVTNShcGh-29">
          <mxGeometry x="0.2795" y="3" relative="1" as="geometry">
            <mxPoint as="offset" />
          </mxGeometry>
        </mxCell>
        <mxCell id="Q3yZ7hF_2W2fVTNShcGh-31" value="" style="curved=1;endArrow=classic;html=1;rounded=0;entryX=0.75;entryY=1;entryDx=0;entryDy=0;exitX=0.25;exitY=0;exitDx=0;exitDy=0;" edge="1" parent="1" target="Q3yZ7hF_2W2fVTNShcGh-19">
          <mxGeometry width="50" height="50" relative="1" as="geometry">
            <mxPoint x="535.4" y="366" as="sourcePoint" />
            <mxPoint x="634.6" y="270" as="targetPoint" />
            <Array as="points">
              <mxPoint x="510" y="370" />
              <mxPoint x="505.4" y="326" />
            </Array>
          </mxGeometry>
        </mxCell>
        <mxCell id="Q3yZ7hF_2W2fVTNShcGh-32" value="request" style="edgeLabel;html=1;align=center;verticalAlign=middle;resizable=0;points=[];" vertex="1" connectable="0" parent="Q3yZ7hF_2W2fVTNShcGh-31">
          <mxGeometry x="-0.2065" y="-7" relative="1" as="geometry">
            <mxPoint as="offset" />
          </mxGeometry>
        </mxCell>
      </root>
    </mxGraphModel>
  </diagram>
</mxfile>
